<?xml version="1.0" standalone="no"?>
<!DOCTYPE svg PUBLIC "-//W3C//DTD SVG 20010904//EN"
 "http://www.w3.org/TR/2001/REC-SVG-20010904/DTD/svg10.dtd">
<svg version="1.0" xmlns="http://www.w3.org/2000/svg"
 width="196.000000pt" height="196.000000pt" viewBox="0 0 196.000000 196.000000"
 preserveAspectRatio="xMidYMid meet">
<metadata>
Created by potrace 1.14, written by Peter Selinger 2001-2017
</metadata>
<g transform="translate(0.000000,196.000000) scale(0.100000,-0.100000)"
fill="#000000" stroke="none">
<path d="M1061 1416 c-5 -13 -17 -26 -27 -30 -16 -6 -15 -8 4 -22 12 -8 22
-24 22 -35 0 -22 13 -25 29 -5 6 7 22 11 36 8 23 -4 25 -2 16 20 -5 15 -5 31
0 41 6 9 9 17 7 18 -2 0 -14 2 -27 3 -14 2 -27 8 -29 14 -6 20 -22 14 -31 -12z
m47 -22 c6 3 9 -4 8 -17 -1 -25 -22 -31 -43 -15 -9 8 -9 14 0 28 7 12 14 15
18 8 4 -6 11 -8 17 -4z"/>
<path d="M945 1420 c-4 -6 -17 -10 -28 -9 -12 0 -28 1 -34 0 -19 -2 -16 -41 3
-48 15 -6 15 -8 -2 -20 -15 -11 -16 -17 -7 -31 6 -9 21 -16 33 -14 13 1 20 -3
18 -10 -5 -13 -20 -22 -62 -34 -27 -8 -36 -24 -97 -174 -37 -91 -68 -171 -68
-177 -2 -23 34 -14 185 48 163 67 172 72 185 107 l9 24 19 -24 c16 -19 23 -21
38 -12 25 15 28 52 7 75 -15 16 -15 19 -1 25 17 6 51 -9 82 -37 26 -23 66 -29
73 -10 3 9 0 11 -8 6 -7 -4 -30 6 -56 24 -54 39 -78 45 -115 26 -41 -22 -64
-18 -79 10 -10 20 -11 28 -2 37 28 28 1 78 -43 78 -13 0 -30 -9 -38 -21 -16
-22 -31 -12 -16 11 5 8 9 37 9 63 0 27 5 57 10 67 11 20 -4 39 -15 20z m-30
-30 c3 -5 -1 -10 -10 -10 -9 0 -13 5 -10 10 3 6 8 10 10 10 2 0 7 -4 10 -10z
m15 -36 c0 -8 -5 -12 -10 -9 -6 4 -8 11 -5 16 9 14 15 11 15 -7z m-10 -34 c0
-5 -4 -10 -10 -10 -5 0 -10 5 -10 10 0 6 5 10 10 10 6 0 10 -4 10 -10z m98
-69 c21 -13 10 -46 -16 -49 -24 -4 -38 18 -28 43 6 17 24 19 44 6z m-125 -31
c-3 -11 0 -20 6 -20 6 0 11 7 11 15 0 22 27 18 40 -5 6 -11 21 -22 33 -26 12
-3 29 -15 39 -28 15 -21 15 -23 -13 -42 -16 -10 -29 -25 -29 -31 0 -18 7 -16
32 7 24 22 37 25 39 10 1 -5 2 -16 3 -22 1 -7 -2 -21 -7 -32 -20 -41 -126 2
-176 73 -30 42 -37 97 -14 110 28 16 42 13 36 -9z m-52 -107 c8 -9 36 -34 62
-55 54 -42 54 -45 -1 -22 -42 17 -92 61 -92 81 0 18 15 16 31 -4z m243 -8 c-4
-8 -7 -15 -9 -15 -2 0 -5 7 -9 15 -3 9 0 15 9 15 9 0 12 -6 9 -15z m59 -31
c-6 -16 -6 -16 -27 -8 -16 6 -22 35 -9 47 10 11 42 -23 36 -39z m-319 -13 c10
-11 40 -29 68 -41 59 -25 50 -43 -14 -29 -64 15 -109 53 -92 80 8 14 19 11 38
-10z m13 -78 c41 -16 42 -23 4 -23 -35 0 -82 35 -75 55 5 12 8 12 22 -2 9 -9
31 -22 49 -30z m-33 -45 c-8 -12 -28 -10 -49 5 -30 23 -9 39 24 19 16 -9 27
-20 25 -24z m-59 -18 c3 -5 -1 -10 -10 -10 -9 0 -13 5 -10 10 3 6 8 10 10 10
2 0 7 -4 10 -10z"/>
<path d="M957 1157 c-6 -17 11 -37 31 -37 19 0 11 44 -9 48 -9 2 -19 -3 -22
-11z"/>
<path d="M1202 1358 c-16 -16 -15 -33 3 -48 12 -10 18 -10 30 0 20 16 19 46
-1 54 -20 8 -18 8 -32 -6z m28 -24 c0 -8 -5 -12 -10 -9 -6 4 -8 11 -5 16 9 14
15 11 15 -7z"/>
<path d="M1127 1273 c-21 -3 -27 -9 -23 -20 4 -9 1 -22 -5 -29 -9 -11 -7 -14
8 -14 10 0 24 -5 30 -11 8 -8 17 -5 34 12 14 14 18 24 11 27 -7 2 -12 12 -12
23 0 10 -3 18 -7 18 -5 -1 -21 -4 -36 -6z m23 -39 c0 -8 -4 -12 -10 -9 -5 3
-10 10 -10 16 0 5 5 9 10 9 6 0 10 -7 10 -16z"/>
<path d="M735 771 l-30 -6 0 -90 0 -90 43 -3 c33 -2 42 0 42 12 0 10 -9 16
-25 16 -20 0 -25 5 -25 25 0 18 5 25 20 25 13 0 18 5 14 15 -4 8 -12 15 -19
15 -7 0 -15 6 -17 13 -9 22 3 37 28 37 14 0 24 6 24 14 0 18 -18 24 -55 17z"/>
<path d="M838 772 c-21 -4 -24 -32 -4 -32 19 0 22 -13 21 -93 0 -55 3 -67 15
-65 12 3 15 19 15 78 0 63 3 75 18 78 9 2 17 10 17 18 0 8 -8 14 -17 15 -10 0
-25 2 -33 3 -8 1 -23 1 -32 -2z"/>
<path d="M1197 773 c-3 -4 -7 -49 -8 -98 -3 -79 -1 -90 14 -93 14 -3 17 5 18
45 l1 48 16 -48 c10 -32 21 -47 31 -45 22 5 29 188 7 188 -9 0 -17 -9 -17 -20
-1 -11 -3 -24 -4 -30 -1 -5 -3 -16 -4 -22 -1 -7 -8 4 -16 26 -15 43 -30 62
-38 49z"/>
<path d="M1703 773 c-18 -7 -16 -33 2 -33 11 0 15 -12 16 -42 1 -46 6 -121 8
-127 0 -2 7 1 14 7 9 8 12 32 10 81 -3 63 -1 71 18 81 12 7 17 15 13 20 -12
10 -66 19 -81 13z"/>
<path d="M219 740 c-1 -16 -1 -39 -1 -50 0 -11 0 -41 1 -66 l1 -45 37 3 c47 4
76 45 55 78 -7 12 -9 26 -5 33 21 34 -11 77 -59 77 -24 0 -28 -4 -29 -30z m59
-17 c-2 -9 -8 -18 -15 -20 -9 -3 -11 11 -4 35 1 1 6 2 12 2 6 0 9 -8 7 -17z
m4 -75 c6 -16 -1 -38 -12 -38 -10 0 -20 37 -12 44 9 10 20 7 24 -6z"/>
<path d="M349 748 c-2 -62 4 -134 12 -150 6 -11 21 -18 39 -18 35 0 39 10 44
118 3 55 1 72 -9 72 -17 0 -22 -20 -25 -89 -1 -58 -5 -71 -21 -71 -5 0 -9 36
-9 80 0 64 -3 80 -15 80 -9 0 -15 -10 -16 -22z"/>
<path d="M477 749 c-3 -9 -4 -50 -3 -90 1 -59 4 -74 17 -77 12 -2 15 5 14 27
-2 35 3 45 28 54 10 4 15 12 12 18 -4 6 -13 8 -21 5 -10 -4 -14 3 -14 24 0 25
4 30 25 30 15 0 25 6 25 14 0 21 -77 17 -83 -5z"/>
<path d="M603 764 c-9 -4 -13 -33 -13 -95 0 -72 3 -89 15 -89 16 0 18 8 15 53
-1 21 3 27 19 27 26 0 28 20 2 27 -27 7 -22 46 7 53 13 3 22 9 20 15 -3 11
-46 17 -65 9z"/>
<path d="M951 748 c-11 -29 -3 -138 11 -155 13 -17 43 -17 56 0 18 22 18 51 0
55 -13 2 -18 -3 -18 -17 0 -28 -20 -27 -21 2 -3 40 -1 77 5 92 6 18 27 20 24
3 -2 -6 5 -14 15 -16 19 -4 22 10 7 39 -16 28 -68 26 -79 -3z"/>
<path d="M1080 750 c-10 -18 -15 -73 -11 -128 2 -33 45 -51 70 -28 22 20 29
139 10 162 -17 21 -57 17 -69 -6z m44 -64 c-1 -12 -3 -34 -3 -49 -1 -16 -5
-26 -11 -22 -11 7 -14 84 -3 111 6 16 7 16 13 -1 4 -10 5 -28 4 -39z"/>
<path d="M1320 676 c0 -79 3 -96 15 -96 11 0 15 12 16 48 l0 47 17 -45 c22
-58 47 -60 48 -5 1 22 3 62 5 90 3 41 0 50 -14 53 -13 3 -17 -4 -18 -25 -1
-15 -1 -31 0 -35 0 -5 -3 -8 -8 -8 -4 0 -12 15 -17 32 -6 18 -17 34 -27 36
-15 3 -17 -7 -17 -92z"/>
<path d="M1451 675 l0 -95 44 0 c33 0 45 4 45 15 0 10 -10 15 -28 15 -21 0
-28 5 -29 21 -1 13 5 23 18 26 25 7 25 33 -1 33 -15 0 -20 7 -20 24 0 19 6 25
27 28 48 6 39 28 -11 28 l-45 0 0 -95z"/>
<path d="M1580 755 c-15 -18 -15 -128 0 -156 6 -10 19 -19 30 -19 20 0 50 35
50 57 0 21 -31 15 -37 -7 -3 -11 -10 -20 -15 -20 -14 0 -5 123 10 128 6 2 12
-3 12 -12 0 -9 7 -16 15 -16 18 0 19 14 5 41 -13 23 -52 25 -70 4z"/>
</g>
</svg>
